<svg data-v-423bf9ae="" xmlns="http://www.w3.org/2000/svg" viewBox="0 0 389.64978350757525 60" class="font"><!----><!----><defs data-v-423bf9ae=""><linearGradient data-v-423bf9ae="" gradientTransform="rotate(25)" id="cf271f7f-fdfc-4737-bf9d-82a40fd62c86" x1="0%" y1="0%" x2="100%" y2="0%"><stop data-v-423bf9ae="" offset="0%" style="stop-color: rgb(65, 226, 150); stop-opacity: 1;"></stop><stop data-v-423bf9ae="" offset="100%" style="stop-color: rgb(0, 196, 238); stop-opacity: 1;"></stop></linearGradient></defs><g data-v-423bf9ae="" id="d4259dc7-844b-4b1f-be05-692c8484a569" fill="url(#cf271f7f-fdfc-4737-bf9d-82a40fd62c86)" transform="matrix(5.8365760270947415,0,0,5.8365760270947415,-4.027234164527073,-21.245138066161786)"><path d="M7.94 13.75L6.94 13.75L6.13 11.21L2.51 11.21L1.71 13.75L0.69 13.75L3.92 3.95L4.68 3.95L7.94 13.75ZM4.03 6.43L2.79 10.35L5.84 10.35L4.58 6.43L4.58 6.43Q4.33 5.68 4.30 5.54L4.30 5.54L4.30 5.54Q4.23 5.82 4.03 6.43L4.03 6.43ZM13.58 13.92L13.58 13.92L13.58 13.92Q11.89 13.92 11.89 12.21L11.89 12.21L11.89 7.48L10.19 7.48L10.19 6.59L11.89 6.59L11.89 4.13L12.87 3.64L12.87 6.59L15.26 6.59L15.26 7.48L12.87 7.48L12.87 11.79L12.87 11.79Q12.87 12.39 13.07 12.69L13.07 12.69L13.07 12.69Q13.27 12.99 13.92 12.99L13.92 12.99L13.92 12.99Q14.66 12.99 15.27 12.57L15.27 12.57L15.16 13.59L15.16 13.59Q14.56 13.92 13.58 13.92ZM22.20 13.92L22.20 13.92L22.20 13.92Q20.51 13.92 20.51 12.21L20.51 12.21L20.51 7.48L18.82 7.48L18.82 6.59L20.51 6.59L20.51 4.13L21.49 3.64L21.49 6.59L23.88 6.59L23.88 7.48L21.49 7.48L21.49 11.79L21.49 11.79Q21.49 12.39 21.69 12.69L21.69 12.69L21.69 12.69Q21.90 12.99 22.54 12.99L22.54 12.99L22.54 12.99Q23.28 12.99 23.90 12.57L23.90 12.57L23.79 13.59L23.79 13.59Q23.18 13.92 22.20 13.92ZM33.25 9.88L33.25 9.88L33.25 9.88Q33.25 10.26 33.22 10.57L33.22 10.57L28.15 10.57L28.15 10.57Q28.29 11.72 28.87 12.36L28.87 12.36L28.87 12.36Q29.44 13.01 30.37 13.01L30.37 13.01L30.37 13.01Q31.28 13.01 32.07 12.45L32.07 12.45L32.61 13.10L32.61 13.10Q31.57 13.92 30.32 13.92L30.32 13.92L30.32 13.92Q28.85 13.92 27.99 12.83L27.99 12.83L27.99 12.83Q27.12 11.75 27.12 10.16L27.12 10.16L27.12 10.16Q27.12 8.40 27.99 7.41L27.99 7.41L27.99 7.41Q28.85 6.43 30.32 6.43L30.32 6.43L30.32 6.43Q31.60 6.43 32.42 7.30L32.42 7.30L32.42 7.30Q33.25 8.18 33.25 9.88ZM28.13 9.69L28.13 9.69L32.26 9.69L32.26 9.69Q32.24 8.39 31.66 7.85L31.66 7.85L31.66 7.85Q31.08 7.31 30.32 7.31L30.32 7.31L30.32 7.31Q29.29 7.31 28.73 7.94L28.73 7.94L28.73 7.94Q28.18 8.57 28.13 9.69ZM38.95 6.43L38.95 6.43L38.95 6.43Q40.32 6.43 40.96 7.22L40.96 7.22L40.96 7.22Q41.59 8.02 41.59 9.79L41.59 9.79L41.59 13.75L40.61 13.75L40.61 9.38L40.61 9.38Q40.61 8.30 40.14 7.81L40.14 7.81L40.14 7.81Q39.66 7.31 38.86 7.31L38.86 7.31L38.86 7.31Q37.02 7.31 37.02 9.35L37.02 9.35L37.02 13.75L36.04 13.75L36.04 6.59L36.96 6.59L36.96 7.45L36.96 7.45Q37.63 6.43 38.95 6.43ZM47.22 13.92L47.22 13.92L47.22 13.92Q45.81 13.92 44.99 12.90L44.99 12.90L44.99 12.90Q44.17 11.89 44.17 10.16L44.17 10.16L44.17 10.16Q44.17 8.41 44.99 7.42L44.99 7.42L44.99 7.42Q45.81 6.43 47.22 6.43L47.22 6.43L47.22 6.43Q48.38 6.43 49.22 7.10L49.22 7.10L49.22 4.13L50.20 3.64L50.20 13.75L49.22 13.75L49.22 13.13L49.22 13.13Q48.44 13.92 47.22 13.92ZM47.33 13.03L47.33 13.03L47.33 13.03Q48.61 13.03 49.22 11.91L49.22 11.91L49.22 8.34L49.22 8.34Q48.58 7.31 47.33 7.31L47.33 7.31L47.33 7.31Q46.30 7.31 45.75 8.05L45.75 8.05L45.75 8.05Q45.19 8.79 45.19 10.16L45.19 10.16L45.19 10.16Q45.19 11.40 45.78 12.22L45.78 12.22L45.78 12.22Q46.37 13.03 47.33 13.03ZM59.12 9.88L59.12 9.88L59.12 9.88Q59.12 10.26 59.09 10.57L59.09 10.57L54.03 10.57L54.03 10.57Q54.17 11.72 54.74 12.36L54.74 12.36L54.74 12.36Q55.31 13.01 56.24 13.01L56.24 13.01L56.24 13.01Q57.15 13.01 57.95 12.45L57.95 12.45L58.48 13.10L58.48 13.10Q57.44 13.92 56.20 13.92L56.20 13.92L56.20 13.92Q54.73 13.92 53.86 12.83L53.86 12.83L53.86 12.83Q52.99 11.75 52.99 10.16L52.99 10.16L52.99 10.16Q52.99 8.40 53.86 7.41L53.86 7.41L53.86 7.41Q54.73 6.43 56.20 6.43L56.20 6.43L56.20 6.43Q57.47 6.43 58.30 7.30L58.30 7.30L58.30 7.30Q59.12 8.18 59.12 9.88ZM54.00 9.69L54.00 9.69L58.13 9.69L58.13 9.69Q58.11 8.39 57.53 7.85L57.53 7.85L57.53 7.85Q56.95 7.31 56.20 7.31L56.20 7.31L56.20 7.31Q55.16 7.31 54.61 7.94L54.61 7.94L54.61 7.94Q54.05 8.57 54.00 9.69ZM64.47 13.92L64.47 13.92L64.47 13.92Q63.06 13.92 62.24 12.90L62.24 12.90L62.24 12.90Q61.42 11.89 61.42 10.16L61.42 10.16L61.42 10.16Q61.42 8.41 62.24 7.42L62.24 7.42L62.24 7.42Q63.06 6.43 64.47 6.43L64.47 6.43L64.47 6.43Q65.63 6.43 66.47 7.10L66.47 7.10L66.47 4.13L67.45 3.64L67.45 13.75L66.47 13.75L66.47 13.13L66.47 13.13Q65.69 13.92 64.47 13.92ZM64.58 13.03L64.58 13.03L64.58 13.03Q65.86 13.03 66.47 11.91L66.47 11.91L66.47 8.34L66.47 8.34Q65.83 7.31 64.58 7.31L64.58 7.31L64.58 7.31Q63.55 7.31 62.99 8.05L62.99 8.05L62.99 8.05Q62.44 8.79 62.44 10.16L62.44 10.16L62.44 10.16Q62.44 11.40 63.03 12.22L63.03 12.22L63.03 12.22Q63.62 13.03 64.58 13.03Z"></path></g><!----><!----></svg>